<svg xmlns="http://www.w3.org/2000/svg" viewBox="0 0 18.03 32"><defs><style>.cls-1{fill:#6b8e23;}</style></defs><title>Asset 3</title><g id="Layer_2" data-name="Layer 2"><g id="Layer_1-2" data-name="Layer 1"><path class="cls-1" d="M17.87,30.74c-.18-1-.51-2-.7-3-.09-.49-.05-1-.15-1.56a19.85,19.85,0,0,0-1.14-3.78l-.47-2.54a14.68,14.68,0,0,0-.2-3.38c-.1-.16-.11-.2-.29-.17s-.58,1.52-.85,1.78c-.35.07-.45-.45-.48-.63-.19-1,.5-2.72.36-3.45l0-.1A26.87,26.87,0,0,0,13.44,7c-.09-.09-.16-.07-.27,0-.59.11-.17,2.91-.31,2.14-.28,1.42-.73,3.24-1.29,3.34-.83.16-.82-1.11-1.43-1.28l0-.14c-.18-1-1-2.3-1.22-3.62-.34-1.81-.32-3.62-.64-5.36,0-.21-.12-.44-.33-.4S7.54,4.58,6.5,4.78c-.56.1-.9-.55-1.45-1.17S.79-.1.27,0C.1,0,0,.13,0,.3A10.13,10.13,0,0,0,1.79,2.35C2.58,3.46,3.19,4.64,4,5.71c0,.11.1.2.13.34a.54.54,0,0,1-.49.67c-.9.16-1.85-.31-2.34-.21-.17,0-.17,0-.14.2.08.45,2.41,1.93,2.65,2.06A8.57,8.57,0,0,1,5.42,10a10.09,10.09,0,0,1,2.11,3.2c.17.91-.92,1.65-1.72,1.8s-2.16,0-2.89.11a.47.47,0,0,0-.12.34c.05.28,2.49,1.19,3,1.35,1.12.77,2,.35,2.71.61a7.48,7.48,0,0,1,1.08.77,6.52,6.52,0,0,1-1.14,2.59l-.91,1.86c0,1.13-1.9,2.95-1.75,3.75,0,.18,0,.21.22.18s2.16-3.25,2.36-3.36a5.44,5.44,0,0,1,2-1,2.3,2.3,0,0,1,2.59,1.72,1.7,1.7,0,0,1-.72,2c-.43.37-1.92,1.48-1.81,2,.35-.07.57-.22.88-.28,1.08-.2,1.93.11,3.11-.11.33.19.57.15.82.5.53.9,2.27,4.07,2.65,4S18,31.19,17.87,30.74ZM16,27.45c-.24-.57-.34-1.45-1.14-1.3-.31.06-.56.29-.9.35a1,1,0,0,0-.3,0c-.59.11-1.08.39-1.77.52.1-.24,3.18-.89,2.91-2.31,0-.28-.34-.7-.39-1l0-.11c-.54-1.3-1.33-4-2.58-3.76-.66.12-.66.73-1.28.88-.78.4-1.3,1.29-2,1.79.11-.78,1.75-1.84,2.09-2.34,0,0,.15-.31.22-.33.36-.42,1.39-.65,1.26-1.35a11.53,11.53,0,0,0-1.17-2.41L10.8,16l-.28.05c-.66.12-1.35.07-2,.2l-.88-.09,0,0c-.66.12-1.08-.16-1.65-.13V16c.77-.14,1.63.06,3.23-.24.56-.11,1.32-.28,1.26-1C9.77,13.42,9,11.2,7.81,10.26,6.36,9.27,3.37,7.88,3.3,7.5c.66-.12,2.07.91,2.07.87a7.79,7.79,0,0,0,1.39.54c.18,0,.2-.29.18-.4-1.1-1.45-1.32-2.63-4.29-6h0A51.19,51.19,0,0,1,7.07,7.84c.55-.1.21-1.55.2-2,0-.72.56-1.44.47-1.93C8,5.08,7.45,6.4,7.7,7.58c0,.07.16.44.17.51,0,.27,0,.64.08,1,.27,1.43,2.29,4.36,2.15,4.21.26.38.62,2,1.32,1.84s1.42-3.19,1.47-3.3a17.59,17.59,0,0,0,.32-1.75c.27,1.24-.83,4.62-.92,4.7.14.73-.7,1.07-.56,1.8.1.52.48.85.68,1.32.31.73.9,3.1,1.39,3s.44-1.09.62-1.48l.09.09a21.88,21.88,0,0,0,0,3.24c.07.38.37.65.47,1s.37,1.59.65,1.54,0-.91.24-1c.12.63,0,1.55.11,1.93.21,1.11.81,2,1,3.05C16.74,29.33,15.87,27.18,16,27.45Z"/></g></g></svg>