<svg xmlns="http://www.w3.org/2000/svg" viewBox="0 0 20.29 36"><defs><style>.cls-1{fill:#6b8e23;}</style></defs><title>Asset 2</title><g id="Layer_2" data-name="Layer 2"><g id="Layer_1-2" data-name="Layer 1"><path class="cls-1" d="M20.1,34.58c-.2-1.1-.57-2.2-.78-3.34-.11-.55-.06-1.16-.17-1.75a24,24,0,0,0-1.28-4.26l-.54-2.85a16.13,16.13,0,0,0-.22-3.81c-.12-.18-.12-.22-.32-.18s-.65,1.7-1,2c-.39.07-.5-.51-.54-.71-.22-1.17.56-3.06.41-3.88l0-.12a30.85,30.85,0,0,0-.56-7.75c-.1-.11-.18-.09-.3-.07-.66.12-.2,3.28-.36,2.42-.31,1.59-.82,3.63-1.44,3.75-.94.18-.92-1.25-1.61-1.44l0-.16c-.2-1.09-1.09-2.59-1.37-4.08-.38-2-.35-4.06-.72-6,0-.23-.13-.5-.37-.46S8.48,5.16,7.31,5.38c-.63.11-1-.63-1.63-1.32S.89-.11.31,0C.11,0,0,.15,0,.34a11.44,11.44,0,0,0,2,2.3C2.9,3.89,3.59,5.22,4.51,6.43c0,.11.12.22.15.37a.6.6,0,0,1-.55.75c-1,.19-2.09-.33-2.64-.23-.19,0-.19,0-.16.23.1.51,2.72,2.17,3,2.32a9.83,9.83,0,0,1,1.79,1.36c.78.91,2.19,2.59,2.38,3.61s-1,1.85-1.93,2c-1.06.2-2.44,0-3.26.13a.53.53,0,0,0-.13.38c.06.32,2.81,1.34,3.37,1.52,1.25.86,2.22.4,3,.69a9.16,9.16,0,0,1,1.22.86A7.5,7.5,0,0,1,9.5,23.36l-1,2.09c0,1.27-2.13,3.32-2,4.22,0,.19,0,.23.24.2s2.43-3.66,2.65-3.78A6,6,0,0,1,11.62,25a2.55,2.55,0,0,1,2.91,1.92,1.92,1.92,0,0,1-.8,2.22c-.49.41-2.16,1.66-2,2.28.39-.07.64-.24,1-.3,1.21-.23,2.17.12,3.5-.13.37.21.64.16.92.55.59,1,2.56,4.59,3,4.51S20.2,35.09,20.1,34.58ZM18,30.88c-.28-.63-.38-1.63-1.28-1.46-.35.07-.63.32-1,.39a1.25,1.25,0,0,0-.33,0c-.67.13-1.22.43-2,.58.11-.26,3.58-1,3.28-2.6-.06-.31-.39-.78-.44-1.09l0-.12c-.6-1.46-1.49-4.5-2.9-4.23-.74.14-.73.82-1.43,1-.89.45-1.47,1.45-2.3,2,.12-.87,2-2.07,2.35-2.62,0,0,.17-.36.25-.37.4-.48,1.56-.74,1.42-1.53a12.68,12.68,0,0,0-1.32-2.71L12.15,18l-.31.06c-.75.14-1.53.08-2.31.23l-1-.1,0,0c-.74.14-1.21-.18-1.85-.14V18c.86-.16,1.83.06,3.63-.28.63-.11,1.48-.31,1.42-1.07-.69-1.53-1.6-4-2.89-5.09-1.63-1.11-5-2.67-5.08-3.1.74-.14,2.34,1,2.33,1a9,9,0,0,0,1.57.6c.19,0,.22-.33.2-.44C6.57,7.94,6.32,6.61,3,2.82H3c1.89,1.67,4.85,6,4.93,6,.63-.12.24-1.75.23-2.23,0-.8.63-1.62.53-2.16.24,1.29-.33,2.77,0,4.09,0,.08.17.5.18.58.06.31,0,.72.09,1.11.3,1.61,2.58,4.91,2.43,4.74.28.43.7,2.21,1.48,2.07s1.6-3.58,1.65-3.71a18.41,18.41,0,0,0,.36-2c.31,1.41-.93,5.2-1,5.3.15.82-.79,1.2-.64,2,.11.59.55,1,.77,1.48.35.83,1,3.5,1.56,3.4s.5-1.23.7-1.67l.1.1a26,26,0,0,0,0,3.64c.08.44.42.74.53,1.12s.42,1.79.73,1.73,0-1,.28-1.11c.13.71,0,1.74.12,2.17.23,1.25.91,2.26,1.13,3.43C18.83,33,17.86,30.58,18,30.88Z"/></g></g></svg>