<svg xmlns="http://www.w3.org/2000/svg" viewBox="0 0 20.29 36"><defs><style>.cls-1{fill:#6b8e23;}</style></defs><title>Asset 1</title><g id="Layer_2" data-name="Layer 2"><g id="Layer_1-2" data-name="Layer 1"><path class="cls-1" d="M12.68,31.07c-.35.06-.6.23-1,.3-.12-.62,1.55-1.87,2-2.28a1.92,1.92,0,0,0,.8-2.22A2.55,2.55,0,0,0,11.62,25,6,6,0,0,0,9.4,26.09c-.22.12-2.46,3.74-2.65,3.78s-.21,0-.24-.2c-.17-.9,1.92-3,2-4.22l1-2.09a7.5,7.5,0,0,0,1.28-2.92,9.16,9.16,0,0,0-1.22-.86c-.82-.29-1.79.17-3-.69-.56-.18-3.31-1.2-3.37-1.52A.53.53,0,0,1,3.28,17c.82-.16,2.2.07,3.26-.13.9-.17,2.12-1,1.93-2s-1.6-2.7-2.38-3.61A9.83,9.83,0,0,0,4.3,9.87c-.27-.15-2.89-1.81-3-2.32,0-.19,0-.19.16-.23.55-.1,1.62.42,2.64.23a.6.6,0,0,0,.55-.75c0-.15-.13-.26-.15-.37C3.59,5.22,2.9,3.89,2,2.64A11.44,11.44,0,0,1,0,.34C0,.15.11,0,.31,0,.89-.11,5,3.3,5.68,4.06s1,1.43,1.63,1.32c1.17-.22,1.34-3.45,1.61-3.51s.33.23.37.46c.37,2,.34,4,.72,6,.28,1.49,1.17,3,1.37,4.08l0,.16c.69.19.67,1.62,1.61,1.44.62-.12,1.13-2.16,1.44-3.75.16.86-.31-2.3.36-2.42.12,0,.2,0,.3.07a30.85,30.85,0,0,1,.56,7.75l0,.12c.15.82-.63,2.71-.41,3.88,0,.2.15.78.54.71.31-.3.76-2,1-2s.2,0,.32.18a16.13,16.13,0,0,1,.22,3.81l.54,2.85a24,24,0,0,1,1.28,4.26c.11.59.06,1.2.17,1.75.21,1.14.58,2.24.78,3.34.1.51.38,1.35,0,1.42s-2.4-3.48-3-4.51c-.28-.39-.55-.34-.92-.55C14.85,31.19,13.89,30.84,12.68,31.07ZM18,30.88c-.13-.3.84,2.11,1.12,2.06-.22-1.17-.9-2.18-1.13-3.43-.08-.43,0-1.46-.12-2.17-.27.09.07,1-.28,1.11s-.64-1.46-.73-1.73-.45-.68-.53-1.12a26,26,0,0,1,0-3.64l-.1-.1c-.2.44-.11,1.56-.7,1.67S14.31,21,14,20.13c-.22-.52-.66-.89-.77-1.48-.15-.82.79-1.2.64-2,.1-.1,1.34-3.89,1-5.29a18.67,18.67,0,0,1-.36,2c-.05.13-.87,3.56-1.65,3.71s-1.2-1.64-1.48-2.07c.15.17-2.13-3.13-2.43-4.74-.07-.39,0-.8-.09-1.11,0-.08-.17-.5-.18-.58-.29-1.32.28-2.8,0-4.09.1.54-.56,1.36-.53,2.16,0,.48.4,2.11-.23,2.23-.08,0-3-4.33-4.93-6H3C6.32,6.61,6.57,7.94,7.81,9.58c0,.11,0,.4-.2.44A9,9,0,0,1,6,9.42s-1.59-1.12-2.33-1c.08.43,3.45,2,5.07,3.1,1.3,1.06,2.21,3.56,2.9,5.09.06.76-.79,1-1.42,1.07-1.8.34-2.77.12-3.63.28v.08c.64,0,1.11.28,1.85.14l0,0,1,.1c.78-.15,1.56-.09,2.31-.23l.31-.06.09.06a12.68,12.68,0,0,1,1.32,2.71c.14.79-1,1.05-1.42,1.53-.08,0-.21.36-.25.37-.38.55-2.23,1.75-2.35,2.62.83-.56,1.41-1.56,2.3-2,.7-.17.69-.85,1.43-1,1.41-.27,2.3,2.77,2.9,4.23l0,.12c.05.31.38.78.44,1.09.3,1.61-3.17,2.34-3.28,2.6.78-.15,1.33-.45,2-.58a1.25,1.25,0,0,1,.33,0c.39-.07.67-.32,1-.39C17.61,29.25,17.71,30.25,18,30.88Z"/></g></g></svg>