<svg xmlns="http://www.w3.org/2000/svg" viewBox="0 0 475 675.13"><defs><style>.cls-1{fill:#6b8e23;}</style></defs><title>Asset 2</title><g id="Layer_2" data-name="Layer 2"><g id="Layer_1-2" data-name="Layer 1"><path class="cls-1" d="M293.62,377.47c-1.07-1.3-1-3.12-.41-6l8.14-40.33,1.71-8.47a36.87,36.87,0,0,1-9.26,8.47h4l-7.54,37.46a48.55,48.55,0,0,0-1,7.49c0,1.35.36,3,2.06,3a7.44,7.44,0,0,0,3-.94,3.38,3.38,0,0,1-.7-.62"/><path class="cls-1" d="M339.93,296.2,334,299.41a2.8,2.8,0,0,1,.74.67,3.28,3.28,0,0,1,.52,2.88L319.79,378.8c0,.09,0,.16,0,.23h3.46a3.32,3.32,0,0,0,.28-.85l16.29-80.46v0l0-.06.29-1.43s0-.07,0-.09l-.18.1"/><path class="cls-1" d="M350.89,379c.92,0,2.63-.82,4.81-2.43a2.89,2.89,0,0,1-1.58-1c-1-1.31-.77-3.17-.34-5l7.29-28.14a38.84,38.84,0,0,0,1.21-7.51c0-2.62-.83-5.26-2.7-5.26a8.69,8.69,0,0,0-4.18,1.58c1.55.41,3,1.79,3,4.7a34.15,34.15,0,0,1-1.1,7.6l-6.63,25.64a39.72,39.72,0,0,0-1,7c0,.48.06,2.83,1.17,2.83"/><path class="cls-1" d="M407.14,330a8.18,8.18,0,0,1,1.86,5.72,17.13,17.13,0,0,1-2.49,8.93c3.7-2.81,5.59-5.77,5.59-8.81s-1.66-5.13-5-5.84"/><path class="cls-1" d="M385.67,340.89A41.09,41.09,0,0,0,378,363.81c0,8.54,4.61,15.22,10.49,15.22a15.27,15.27,0,0,0,3.68-.52,10.56,10.56,0,0,1-7.2-4.05c-3-3.93-3.81-10.27-2.15-17.51l.76-3.46c1.81-7.76,4-13.7,6.75-17.89a34,34,0,0,0-4.62,5.29"/><path class="cls-1" d="M217.63,477.73a13.07,13.07,0,0,0,3.47-.76c-4.58-1.4-8.82-7.09-8.82-17.78A45.39,45.39,0,0,1,217,439.47c-4.83,5.13-8.61,11.94-8.61,20.23,0,10,5,18,9.22,18"/><path class="cls-1" d="M236.15,428.38a12.51,12.51,0,0,0-3.82.83c5.53,1.73,9.42,8.71,9.42,17.59A46.19,46.19,0,0,1,237,466.72,31,31,0,0,0,245.62,445c0-12.54-7-16.63-9.47-16.63"/><path class="cls-1" d="M285.48,433.25c0-2.59-2.57-4.87-5.51-4.87a9.44,9.44,0,0,0-1.57.14c2,1,3.13,3,4,4.44s1.32,2.23,1.84,2.23c.89,0,1.29-1,1.29-1.94"/><path class="cls-1" d="M266.14,477.45a22.73,22.73,0,0,1-5.22-2.8c-1.78-1.18-3.33-2.19-4.84-2.19a1.61,1.61,0,0,0-1.81,1.67c0,3.34,5.79,3.6,7.56,3.6a31,31,0,0,0,4.31-.28"/><path class="cls-1" d="M279.86,463.91c0-5.17-3.72-9.3-7.32-13.29s-6.73-7.47-6.73-12c0-.22,0-.43,0-.65a10.47,10.47,0,0,0-1.59,5.12c0,3.9,3.59,8,7.05,12,3.68,4.19,7.46,8.51,7.86,13.4a14,14,0,0,0,.71-4.53"/><path class="cls-1" d="M181.09,477.73c1,0,2.82-1.11,5-2.94a2.38,2.38,0,0,1-.84-.64,3.79,3.79,0,0,1-.65-3.13l0-.12,6.9-34.49a29.34,29.34,0,0,0,.6-4.62c0-1.29-.29-3.41-1.3-3.41s-2.48.72-4.45,2.06a2.67,2.67,0,0,1,1.41.92c.92,1.15.8,2.72.29,5l-7.53,36.89c-.73,3.32-.12,4.19-.05,4.28a.91.91,0,0,0,.62.16"/><path class="cls-1" d="M136.19,428.4c-1,.18-3.38,1.66-6.66,4.73a2.64,2.64,0,0,1,.9.7c.78.95.95,2.45.52,4.57l-8,39.33h3.54l9.74-47.85a3.24,3.24,0,0,0,0-1.48"/><path class="cls-1" d="M162.57,428.38c-1,0-2.64.68-4.57,1.95a3,3,0,0,1,1.61,1c1,1.28.73,3,.47,4.37l-8.55,42H155c0-.17.07-.33.08-.41L162.5,441a54.78,54.78,0,0,0,1.36-9.28c0-2.22-.43-3.34-1.29-3.34"/><path class="cls-1" d="M304.59,476.16c-1.07-1.29-1-3.11-.42-6l8.15-40.33,1.71-8.47a37.21,37.21,0,0,1-9.26,8.47h4l-7.55,37.46a48.55,48.55,0,0,0-1,7.49c0,1.35.36,3,2.07,3a7.45,7.45,0,0,0,2.95-1,3,3,0,0,1-.69-.62"/><path class="cls-1" d="M375.93,528.09a11.72,11.72,0,0,1,4.38,1.77,7.76,7.76,0,0,0,4.11,1.47c1,0,1-1.62,1-1.81,0-2.2-3-2.44-4.36-2.44a14.12,14.12,0,0,0-5.17,1"/><path class="cls-1" d="M363.85,576.43a11.27,11.27,0,0,0,3.17-.5c-5.06-.65-8.26-5.08-8.26-11.66,0-4.59,1.91-17.36,6-26.45-5.95,8.46-9.59,20-9.59,27.6,0,6.69,3.42,11,8.7,11"/><path class="cls-1" d="M464.33,494.47a10.34,10.34,0,0,0,.17-1.12,12.51,12.51,0,0,0-2.56,1.25l-3.73,2.09a2.48,2.48,0,0,1,.64.57c.93,1.13.79,2.62.5,4.07l-13.67,67.46a24.67,24.67,0,0,0-.47,4c0,1.64.36,3.6,2.07,3.6a7.26,7.26,0,0,0,3.21-1.13,3.51,3.51,0,0,1-.88-.75c-1.16-1.42-.94-3.46-.61-5.08Z"/><path class="cls-1" d="M198.67,576.43a12.84,12.84,0,0,0,3.48-.77c-4.59-1.39-8.82-7.08-8.82-17.77a45.46,45.46,0,0,1,4.74-19.73c-4.84,5.14-8.61,12-8.61,20.24,0,10,5,18,9.21,18"/><path class="cls-1" d="M217.2,527.08a12.45,12.45,0,0,0-3.82.83c5.52,1.72,9.42,8.71,9.42,17.58a46.07,46.07,0,0,1-4.75,19.93,30.93,30.93,0,0,0,8.62-21.71c0-12.54-7-16.63-9.47-16.63"/><path class="cls-1" d="M329.75,576.43c.9,0,2.52-.84,4.73-2.62a3,3,0,0,1-1.09-.83c-1.11-1.34-.86-3.19-.39-5.66l7.15-35c.76-3.79.41-4.94.29-5.2h-.22c-1,0-3,1.23-5.63,3.45a2.64,2.64,0,0,1,1,.75,4,4,0,0,1,.48,3.39l-7.15,35a31.19,31.19,0,0,0-.47,4.42c0,2.32.94,2.32,1.3,2.32"/><path class="cls-1" d="M342,507.3c0,1.8.76,1.8,1,1.8,2.47,0,4-4.32,4-7.43,0-1-.36-1.93-1.17-1.93-1.48,0-3.85,3.46-3.85,7.56"/><path class="cls-1" d="M88.17,576.43a12.79,12.79,0,0,0,3.47-.77c-4.58-1.39-8.82-7.08-8.82-17.77a45.46,45.46,0,0,1,4.74-19.73c-4.83,5.13-8.61,12-8.61,20.24,0,10,5,18,9.22,18"/><path class="cls-1" d="M106.69,527.08a12.51,12.51,0,0,0-3.82.83c5.53,1.72,9.42,8.71,9.42,17.58a46.2,46.2,0,0,1-4.74,19.93,31,31,0,0,0,8.61-21.71c0-12.54-7-16.63-9.47-16.63"/><path class="cls-1" d="M63.07,528.09a11.67,11.67,0,0,1,4.37,1.77,7.83,7.83,0,0,0,4.12,1.47c1,0,1-1.62,1-1.81,0-2.2-3-2.44-4.36-2.44a14.08,14.08,0,0,0-5.17,1"/><path class="cls-1" d="M51,576.43a11.27,11.27,0,0,0,3.17-.5c-5.06-.65-8.26-5.08-8.26-11.66,0-4.59,1.9-17.37,6-26.45-6,8.46-9.59,20-9.59,27.6,0,6.69,3.41,11,8.7,11"/><path class="cls-1" d="M29.18,527.39A8.17,8.17,0,0,1,31,533.1,17.16,17.16,0,0,1,28.56,542c3.69-2.81,5.59-5.76,5.59-8.8s-1.67-5.13-5-5.84"/><path class="cls-1" d="M7.71,538.28A41.14,41.14,0,0,0,0,561.21c0,8.53,4.61,15.22,10.49,15.22a14.77,14.77,0,0,0,3.68-.53,10.51,10.51,0,0,1-7.2-4c-3-3.93-3.8-10.27-2.15-17.52l.77-3.46q2.7-11.62,6.74-17.88a34.39,34.39,0,0,0-4.62,5.28"/><path class="cls-1" d="M299.21,576.43c1,0,2.82-1.11,5-2.95a2.54,2.54,0,0,1-.84-.63,3.82,3.82,0,0,1-.65-3.13l0-.12,6.9-34.49a29.34,29.34,0,0,0,.6-4.62c0-1.3-.29-3.41-1.3-3.41s-2.48.72-4.45,2.06a2.67,2.67,0,0,1,1.41.92c.92,1.15.81,2.72.29,5L298.64,572c-.72,3.32-.12,4.19-.05,4.28a.91.91,0,0,0,.62.16"/><path class="cls-1" d="M254.31,527.1c-1,.18-3.38,1.66-6.66,4.73a2.64,2.64,0,0,1,.9.7c.78,1,.95,2.45.52,4.57l-8,39.33h3.54l9.74-47.85a3.24,3.24,0,0,0,0-1.48"/><path class="cls-1" d="M280.69,527.08c-1.05,0-2.63.67-4.57,1.95a3,3,0,0,1,1.61,1c1.06,1.28.74,3,.48,4.37l-8.56,42h3.48c0-.17.06-.33.08-.42l7.41-36.31a55.06,55.06,0,0,0,1.37-9.28c0-2.22-.44-3.34-1.3-3.34"/><path class="cls-1" d="M396.43,576.43c.81,0,2.28-.83,4.07-2.15-3.35-.62-5.71-5.23-5.71-11.41a43.66,43.66,0,0,1,4.62-18.42c-5.15,6.61-8.11,14.13-8.11,21,0,6,3.15,11,5.13,11"/><path class="cls-1" d="M423.33,572.23c-1-1.24-1.14-3.13-.4-7l7.66-38.18a36.84,36.84,0,0,0-12.62,3,42,42,0,0,1,5.92-.77l2.8-.17-6.45,32.23c-2.67,10.66-1.85,13.82-1.12,14.75a.87.87,0,0,0,.82.33c.69,0,2.45-1,4.91-3.21a3,3,0,0,1-1.52-1"/><path class="cls-1" d="M162.14,576.43a8.06,8.06,0,0,0,3.71-1.56,2.92,2.92,0,0,1-.76-.69c-1.08-1.37-.79-3.31-.32-5.19l7.93-29.8a25.46,25.46,0,0,0,1-6.73,6.75,6.75,0,0,0-1.26-4.74,2,2,0,0,0-1.57-.64,8.68,8.68,0,0,0-4.15,1.71,4.15,4.15,0,0,1,2.23,1.47c1.19,1.52,1.42,3.77.69,6.69l-8.44,32.84c-.87,3.34-.5,5.4.13,6.22a1,1,0,0,0,.86.42"/><path class="cls-1" d="M143.89,527.09c-1.11.22-3.69,2.23-6.62,5.23a2.7,2.7,0,0,1,1,.77c.8,1,1,2.4.54,4.52l-8,38.82h3.55a2.83,2.83,0,0,0,.11-.4l4.34-21.61L143.93,529a3.15,3.15,0,0,0,0-1.88"/><path class="cls-1" d="M451.35,675.13a32.63,32.63,0,0,0,4.31-.28,22.73,22.73,0,0,1-5.22-2.8c-1.79-1.18-3.33-2.2-4.84-2.2a1.62,1.62,0,0,0-1.81,1.68c0,3.34,5.78,3.6,7.56,3.6"/><path class="cls-1" d="M475,630.65c0-2.6-2.58-4.87-5.51-4.87a9.56,9.56,0,0,0-1.58.14c2,1,3.14,3,3.95,4.44s1.33,2.22,1.84,2.22c.89,0,1.3-1,1.3-1.93"/><path class="cls-1" d="M469.38,661.31c0-5.18-3.72-9.3-7.32-13.3-3.46-3.84-6.73-7.47-6.73-12,0-.22,0-.44,0-.65a10.47,10.47,0,0,0-1.59,5.12c0,3.9,3.58,8,7.05,12,3.67,4.19,7.46,8.51,7.86,13.4a14,14,0,0,0,.71-4.53"/><path class="cls-1" d="M174.9,675.13c.78,0,2.16-.67,3.95-2-2.82-.69-5.47-4.06-5.47-11.85,0-8.74,3.32-19.46,8-26.95-6.11,6.63-11.61,16.55-11.61,27.72,0,8.06,2.66,13,5.13,13"/><path class="cls-1" d="M405.21,671.53c0,3.34,5.78,3.6,7.56,3.6a32.63,32.63,0,0,0,4.31-.28,22.73,22.73,0,0,1-5.22-2.8c-1.79-1.18-3.33-2.2-4.84-2.2a1.62,1.62,0,0,0-1.81,1.68"/><path class="cls-1" d="M430.8,661.31c0-5.18-3.72-9.3-7.32-13.3-3.46-3.84-6.73-7.47-6.73-12,0-.22,0-.44,0-.65a10.47,10.47,0,0,0-1.59,5.12c0,3.9,3.58,8,7.05,12,3.67,4.19,7.46,8.51,7.86,13.4a14,14,0,0,0,.71-4.53"/><path class="cls-1" d="M435.12,632.59c.89,0,1.3-1,1.3-1.94,0-2.6-2.58-4.87-5.51-4.87a9.65,9.65,0,0,0-1.58.14c2,1,3.14,3,3.95,4.44s1.33,2.23,1.84,2.23"/><path class="cls-1" d="M38.29,673.56c-1.07-1.3-1-3.11-.41-6L46,627.22l1.71-8.47a37,37,0,0,1-9.26,8.47h4L35,664.67a48.67,48.67,0,0,0-1,7.5c0,1.35.36,3,2.06,3a7.49,7.49,0,0,0,3-1,2.89,2.89,0,0,1-.7-.62"/><path class="cls-1" d="M93.3,626.08a8.21,8.21,0,0,1,1.86,5.72,17.17,17.17,0,0,1-2.49,8.93c3.7-2.81,5.59-5.76,5.59-8.8s-1.66-5.13-5-5.85"/><path class="cls-1" d="M71.83,637a41.09,41.09,0,0,0-7.71,22.93c0,8.53,4.61,15.22,10.49,15.22a14.9,14.9,0,0,0,3.68-.53,10.49,10.49,0,0,1-7.2-4.05c-3-3.92-3.81-10.26-2.15-17.51l.76-3.46Q72.42,638,76.44,631.7A33.88,33.88,0,0,0,71.83,637"/><path class="cls-1" d="M253.11,626.08A8.17,8.17,0,0,1,255,631.8a17.17,17.17,0,0,1-2.49,8.93c3.7-2.81,5.59-5.76,5.59-8.8s-1.67-5.13-5-5.85"/><path class="cls-1" d="M231.64,637a41.17,41.17,0,0,0-7.71,22.93c0,8.53,4.61,15.22,10.5,15.22a14.76,14.76,0,0,0,3.67-.53,10.46,10.46,0,0,1-7.19-4.05c-3-3.92-3.81-10.26-2.15-17.51l.76-3.46c1.81-7.75,4-13.7,6.74-17.88a34.46,34.46,0,0,0-4.62,5.28"/><path class="cls-1" d="M394.79,626.08a8.17,8.17,0,0,1,1.87,5.72,17.17,17.17,0,0,1-2.49,8.93c3.69-2.81,5.59-5.76,5.59-8.8s-1.67-5.13-5-5.85"/><path class="cls-1" d="M373.32,637a41.09,41.09,0,0,0-7.71,22.93c0,8.53,4.61,15.22,10.5,15.22a14.76,14.76,0,0,0,3.67-.53,10.46,10.46,0,0,1-7.19-4.05c-3-3.92-3.81-10.26-2.15-17.51l.76-3.46c1.81-7.75,4-13.7,6.74-17.88a34.46,34.46,0,0,0-4.62,5.28"/><path class="cls-1" d="M141,675.13a8,8,0,0,0,3.71-1.56,2.88,2.88,0,0,1-.75-.69c-1.08-1.37-.79-3.31-.32-5.19l7.93-29.8a25.46,25.46,0,0,0,.95-6.73c.06-2.11-.41-3.86-1.26-4.74a2,2,0,0,0-1.57-.64,8.64,8.64,0,0,0-4.15,1.71,4.15,4.15,0,0,1,2.23,1.47c1.18,1.52,1.42,3.77.69,6.68l-8.44,32.85c-.87,3.34-.5,5.4.13,6.22a1,1,0,0,0,.85.42"/><path class="cls-1" d="M122.79,625.79c-1.1.21-3.68,2.23-6.61,5.23a2.7,2.7,0,0,1,1,.77c.79,1,1,2.4.54,4.52l-8,38.82h3.56a2.44,2.44,0,0,0,.1-.41l4.35-21.6,5.11-25.45a3.06,3.06,0,0,0,0-1.88"/><path class="cls-1" d="M338.67,675.13a8,8,0,0,0,3.71-1.56,2.88,2.88,0,0,1-.75-.69c-1.08-1.37-.79-3.31-.32-5.19l7.93-29.8a25.46,25.46,0,0,0,.95-6.73c.06-2.11-.41-3.86-1.26-4.74a2,2,0,0,0-1.57-.64,8.64,8.64,0,0,0-4.15,1.71,4.15,4.15,0,0,1,2.23,1.47c1.18,1.52,1.42,3.77.69,6.68l-8.44,32.85c-.87,3.34-.5,5.4.13,6.22a1,1,0,0,0,.85.42"/><path class="cls-1" d="M320.42,625.79c-1.1.21-3.68,2.23-6.61,5.23a2.7,2.7,0,0,1,1,.77c.79,1,1,2.4.54,4.52l-8,38.82h3.56a2.44,2.44,0,0,0,.1-.41l4.35-21.6,5.11-25.45a3.06,3.06,0,0,0,0-1.88"/><path class="cls-1" d="M291.48,631.79a5.08,5.08,0,0,1,2.61-.74,12.31,12.31,0,0,1,2.37.28c.21,0,.49.1.58.11.92,0,1.79-2.17,1.79-3.85,0-.83-.18-1.81-1-1.81-1.7,0-4,2.24-6.31,6"/><path class="cls-1" d="M280.69,632.41a35.28,35.28,0,0,0,.51-4.7c0-.08,0-1.93-.65-1.93-1,0-3.14,2-5.49,4.43a3.29,3.29,0,0,1,1.37.92c1.2,1.41.89,3.36.53,5.61l0,.25-6.79,38.14h3l.2,0,6.74-39.17h0l.26-1.52.35-2Z"/><path class="cls-1" d="M215.59,592.6a1.62,1.62,0,0,1,0-.19,21.28,21.28,0,0,0-2.27,1l-3.78,2.08a3,3,0,0,1,.4.4,4.26,4.26,0,0,1,.63,3.68L196.42,669.8c-.79,4-.1,5.19,0,5.33h.07c1.07,0,3.17-1.22,5.59-3.3a2.85,2.85,0,0,1-.86-.69c-.84-1-1-2.5-.59-4.85Z"/><path class="cls-1" d="M241.09,81.37c-1.08-1.3-1-3.11-.42-6L248.81,35l1.72-8.47A37.09,37.09,0,0,1,241.26,35h4l-7.55,37.45a48.67,48.67,0,0,0-1,7.5c0,1.35.36,3,2.06,3a7.49,7.49,0,0,0,3-1,2.83,2.83,0,0,1-.69-.62"/><path class="cls-1" d="M287.39.1l-5.95,3.22a2.76,2.76,0,0,1,.74.66,3.28,3.28,0,0,1,.52,2.88L267.25,82.71a2.23,2.23,0,0,0,0,.23h3.46a3.31,3.31,0,0,0,.28-.86L287.24,1.63v0l0-.06.29-1.43s0-.06,0-.09l-.18.1"/><path class="cls-1" d="M298.35,82.94c.93,0,2.64-.83,4.81-2.44a2.91,2.91,0,0,1-1.58-1c-1-1.31-.77-3.17-.34-5l7.29-28.15a38.84,38.84,0,0,0,1.21-7.51c0-2.61-.83-5.25-2.7-5.25a8.58,8.58,0,0,0-4.18,1.58c1.56.41,3,1.79,3,4.7a34.23,34.23,0,0,1-1.1,7.6l-6.63,25.64a40.45,40.45,0,0,0-.95,7c0,.47.05,2.83,1.16,2.83"/><path class="cls-1" d="M354.6,33.89a8.21,8.21,0,0,1,1.86,5.72A17.1,17.1,0,0,1,354,48.54c3.7-2.81,5.6-5.77,5.6-8.8s-1.67-5.13-5-5.85"/><path class="cls-1" d="M333.13,44.79a41.09,41.09,0,0,0-7.71,22.92c0,8.54,4.61,15.23,10.49,15.23a14.77,14.77,0,0,0,3.68-.53,10.49,10.49,0,0,1-7.2-4c-3-3.92-3.8-10.26-2.15-17.51l.77-3.46q2.7-11.62,6.74-17.88a33.41,33.41,0,0,0-4.62,5.28"/><path class="cls-1" d="M126.77,81.37c-1.07-1.3-1-3.11-.41-6L134.5,35l1.71-8.47A36.87,36.87,0,0,1,127,35h4l-7.54,37.45a48.67,48.67,0,0,0-1,7.5c0,1.35.36,3,2.06,3a7.49,7.49,0,0,0,3-1,2.89,2.89,0,0,1-.7-.62"/><path class="cls-1" d="M173.08.1l-6,3.22a2.76,2.76,0,0,1,.74.66,3.28,3.28,0,0,1,.52,2.88L152.94,82.71a2.23,2.23,0,0,0,0,.23h3.46a3.31,3.31,0,0,0,.28-.86L172.93,1.63v0l0-.06.29-1.43s0-.06,0-.09l-.18.1"/><path class="cls-1" d="M184,82.94c.93,0,2.64-.83,4.81-2.44a2.91,2.91,0,0,1-1.58-1c-1-1.31-.77-3.17-.34-5l7.29-28.15a38.84,38.84,0,0,0,1.21-7.51c0-2.61-.83-5.25-2.7-5.25a8.58,8.58,0,0,0-4.18,1.58c1.56.41,3,1.79,3,4.7a34.23,34.23,0,0,1-1.1,7.6l-6.63,25.64a40.45,40.45,0,0,0-1,7c0,.47.05,2.83,1.16,2.83"/><path class="cls-1" d="M105.61,15.61c2.46,0,4-4.33,4-7.43,0-1-.36-1.93-1.16-1.93-1.49,0-3.85,3.46-3.85,7.55,0,1.81.75,1.81,1,1.81"/><path class="cls-1" d="M102.73,38.8c.76-3.79.4-4.94.28-5.2h-.21c-1,0-3,1.23-5.64,3.45a2.76,2.76,0,0,1,1,.75,4,4,0,0,1,.48,3.39l-7.16,35A31.48,31.48,0,0,0,91,80.62c0,2.32,1,2.32,1.3,2.32.9,0,2.52-.85,4.73-2.63A2.8,2.8,0,0,1,96,79.49c-1.12-1.34-.87-3.19-.4-5.66Z"/><path class="cls-1" d="M53.91,35.7A9.22,9.22,0,0,0,54,33.59H51.57a.9.9,0,0,0-.24,0s-.27.25-.45,1.35L45,72.4a64.43,64.43,0,0,0-.74,7.83c0,1.68.68,2.71,1.17,2.71a8.57,8.57,0,0,0,4-1.51,3.44,3.44,0,0,1-.81-.67c-1.27-1.48-1.16-4-.5-8.26Z"/><path class="cls-1" d="M78.65,33.59c-1.49,0-3.47,1.83-3.47,3.21a.31.31,0,0,0,0,.09,3.64,3.64,0,0,0,.56.55,5.94,5.94,0,0,1,2.37,4.85c0,5-1.85,10.26-4.22,14.92,5.25-7.24,8-13.63,8-18.88,0-2.66-1.41-4.74-3.21-4.74"/><path class="cls-1" d="M21,81.5a3.3,3.3,0,0,1-1.64-1c-1.37-1.59-1-4-.35-8.74l4.47-29.9a53.63,53.63,0,0,0,.62-6.58,3.54,3.54,0,0,0-.3-1.68c-1,.09-3.49,1.91-6.41,4.81a3,3,0,0,1,1.79,1c1.21,1.42.88,3.45.43,6.26-.1.61-.2,1.24-.3,1.9L16,70.33a92.59,92.59,0,0,0-.74,9.39c0,1.2.21,3.22,1.68,3.22A8.61,8.61,0,0,0,21,81.5"/><path class="cls-1" d="M189.07,207.83a9.18,9.18,0,0,1-3.71-7.05,8.45,8.45,0,0,1,1.45-4.52c-2.78,2-4.81,4-4.81,5.67,0,1.9,2.26,4.25,7.07,5.9"/><path class="cls-1" d="M344.5,178c0,3.34,5.79,3.6,7.56,3.6a32.63,32.63,0,0,0,4.31-.28,22.73,22.73,0,0,1-5.22-2.8c-1.79-1.18-3.33-2.2-4.84-2.2A1.62,1.62,0,0,0,344.5,178"/><path class="cls-1" d="M375.71,137.16c0-2.6-2.58-4.87-5.51-4.87a8.48,8.48,0,0,0-1.57.14c2,1,3.13,3,3.94,4.44s1.33,2.22,1.85,2.22c.89,0,1.29-1,1.29-1.93"/><path class="cls-1" d="M370.09,167.82c0-5.18-3.72-9.31-7.32-13.3s-6.73-7.47-6.73-12c0-.21,0-.43,0-.65a10.53,10.53,0,0,0-1.59,5.13c0,3.9,3.58,8,7,11.95,3.67,4.19,7.46,8.51,7.86,13.4a14,14,0,0,0,.71-4.53"/><path class="cls-1" d="M282.64,179.2a2.91,2.91,0,0,1-1.58-1c-1-1.31-.77-3.17-.34-5L288,145.05a38.84,38.84,0,0,0,1.21-7.51c0-2.61-.83-5.25-2.7-5.25a8.65,8.65,0,0,0-4.18,1.57c1.56.42,3,1.79,3,4.7a34.31,34.31,0,0,1-1.1,7.61l-6.63,25.64a40.45,40.45,0,0,0-.95,7c0,.47.05,2.83,1.16,2.83.93,0,2.64-.83,4.81-2.44"/><path class="cls-1" d="M237.61,133.09c-4.14-.42-8.7-.8-12.79-.8-.58,0-1.15,0-1.72.07,3.58,2.06,5.79,7,5.79,13.49a37,37,0,0,1-5,18.73,38.28,38.28,0,0,0,3.38-3A19.19,19.19,0,0,0,233,147.12a25.07,25.07,0,0,0-2.48-10l-1.59-3.44,8.67.91Z"/><path class="cls-1" d="M229.05,200.27c0-3.23-7.17-7.84-12.4-11.2-6.14-3.95-11.05-7.1-11.57-10.77a4.19,4.19,0,0,0-1.62,2.81,3.23,3.23,0,0,0,1,2.27l1.82,2-.06,0a107.07,107.07,0,0,0,11.91,8.92c4.94,3.32,8.21,5.51,8.21,9a4.75,4.75,0,0,1-.19,1.36c1.9-1.4,2.91-2.93,2.91-4.43"/><path class="cls-1" d="M208.23,172.13l1.1.52,1.13-.55c-4.47-1.5-7.6-6.85-7.6-13.61A49.48,49.48,0,0,1,208,139.81c-5.49,5.26-9,12.25-9,17.53a16.13,16.13,0,0,0,9.24,14.79"/><path class="cls-1" d="M143.18,181.63c1,0,3-1.59,5.35-3.59-1.21-.3-2.77-1.37-2.77-4.86a16.42,16.42,0,0,1,.43-3.53l6.25-30.87c1-4.86.67-6.15.49-6.48h-.16c-1.08,0-3.53,1.66-6.45,4.59a2.63,2.63,0,0,1,1.42.88c.92,1.12.82,2.66.24,5.68l-5.24,25.83a39.71,39.71,0,0,0-1,7.49c0,3.17.73,4.87,1.42,4.87"/><path class="cls-1" d="M116.1,132.29a12.51,12.51,0,0,0-3.82.83c5.53,1.72,9.42,8.71,9.42,17.58A46.19,46.19,0,0,1,117,170.62a31,31,0,0,0,8.61-21.71c0-12.53-7-16.62-9.47-16.62"/><path class="cls-1" d="M97.58,181.63a12.67,12.67,0,0,0,3.47-.76c-4.58-1.4-8.82-7.09-8.82-17.78A45.42,45.42,0,0,1,97,143.37c-4.84,5.13-8.61,11.94-8.61,20.23,0,10,5,18,9.22,18"/><path class="cls-1" d="M62.15,180.07c-1.07-1.3-1-3.12-.41-6l8.14-40.33,1.71-8.48a37.27,37.27,0,0,1-9.26,8.48h4l-7.54,37.45a48.51,48.51,0,0,0-1,7.5c0,1.35.36,2.95,2.06,2.95a7.44,7.44,0,0,0,3-.94,2.89,2.89,0,0,1-.7-.62"/><path class="cls-1" d="M183.88,132.48c0-.07,0-.13,0-.19h-2.67a.72.72,0,0,0-1.08.72l-7.79,37.91a51.83,51.83,0,0,0-1.11,8.14,6.73,6.73,0,0,0,.32,2.55c1-.23,3.2-1.86,6-4.47a2.9,2.9,0,0,1-1.56-1,3.41,3.41,0,0,1-.47-3Z"/><path class="cls-1" d="M266.87,98.8,260.93,102a2.88,2.88,0,0,1,.73.66,3.24,3.24,0,0,1,.52,2.88l-15.45,75.85a2.07,2.07,0,0,0,0,.22h3.46a2.82,2.82,0,0,0,.28-.85l16.3-80.45v0l0-.06.29-1.43s0-.06,0-.09l-.18.1"/><path class="cls-1" d="M277.83,181.63c.93,0,2.64-.82,4.81-2.43a3,3,0,0,1-1.58-1c-1-1.31-.77-3.18-.34-5L288,145.05a38.84,38.84,0,0,0,1.21-7.51c0-2.61-.83-5.25-2.7-5.25a8.65,8.65,0,0,0-4.18,1.57c1.56.41,3,1.79,3,4.7a34.31,34.31,0,0,1-1.1,7.61l-6.63,25.64a40.45,40.45,0,0,0-.95,7c0,.47.05,2.82,1.16,2.82"/><path class="cls-1" d="M334.08,132.59a8.19,8.19,0,0,1,1.86,5.72,17.1,17.1,0,0,1-2.49,8.93c3.7-2.81,5.6-5.77,5.6-8.8,0-3.18-1.67-5.14-5-5.85"/><path class="cls-1" d="M312.61,143.49a41.09,41.09,0,0,0-7.71,22.92c0,8.54,4.61,15.23,10.49,15.23a15.25,15.25,0,0,0,3.68-.53,10.52,10.52,0,0,1-7.2-4.05c-3-3.93-3.8-10.26-2.15-17.51l.77-3.46q2.7-11.62,6.74-17.89a34,34,0,0,0-4.62,5.29"/><path class="cls-1" d="M394.82,180.07c-1.08-1.3-1-3.12-.42-6l8.14-40.33,1.72-8.48a37.31,37.31,0,0,1-9.27,8.48h4l-7.55,37.45a48.51,48.51,0,0,0-1,7.5c0,1.35.36,2.95,2.06,2.95a7.44,7.44,0,0,0,3-.94,2.83,2.83,0,0,1-.69-.62"/><path class="cls-1" d="M396.59,278.41c0-3.81-1.9-6.91-4.24-6.91-1.86,0-3.21,1.56-3.21,3.72a8.09,8.09,0,0,0,1.63,4.47,12.68,12.68,0,0,1,2.33,7,11,11,0,0,1-.75,4,19.62,19.62,0,0,0,4.24-12.34"/><path class="cls-1" d="M229.47,280.35a11.57,11.57,0,0,0,3.16-.5c-5.06-.65-8.25-5.08-8.25-11.66,0-4.6,1.9-17.37,6-26.45-6,8.46-9.6,20-9.6,27.6,0,6.69,3.42,11,8.71,11"/><path class="cls-1" d="M250,235.25c1,0,1-1.62,1-1.81,0-2.2-3.05-2.44-4.36-2.44a13.88,13.88,0,0,0-5.17,1,11.67,11.67,0,0,1,4.37,1.77,7.83,7.83,0,0,0,4.12,1.47"/><path class="cls-1" d="M372.71,231.3a8.17,8.17,0,0,1,1.87,5.72,17.2,17.2,0,0,1-2.49,8.93c3.69-2.81,5.59-5.76,5.59-8.8s-1.67-5.13-5-5.85"/><path class="cls-1" d="M351.24,242.2a41.17,41.17,0,0,0-7.71,22.93c0,8.53,4.61,15.22,10.5,15.22a14.76,14.76,0,0,0,3.67-.53,10.46,10.46,0,0,1-7.19-4.05c-3-3.92-3.81-10.26-2.15-17.51l.76-3.46c1.81-7.75,4-13.7,6.74-17.88a34.46,34.46,0,0,0-4.62,5.28"/><path class="cls-1" d="M262.05,280.35c.81,0,2.27-.83,4.07-2.15-3.36-.62-5.72-5.23-5.72-11.41A43.67,43.67,0,0,1,265,248.37c-5.15,6.61-8.11,14.12-8.11,21,0,6,3.15,11,5.13,11"/><path class="cls-1" d="M288.94,276.15c-1-1.24-1.13-3.13-.39-7L296.21,231a36.56,36.56,0,0,0-12.62,3,41.84,41.84,0,0,1,5.92-.77l2.79-.17-6.45,32.22c-2.66,10.67-1.85,13.83-1.12,14.76a.89.89,0,0,0,.82.33c.7,0,2.46-1.05,4.92-3.21a2.94,2.94,0,0,1-1.53-1"/><path class="cls-1" d="M332.51,237a5.1,5.1,0,0,1,2.61-.74,12.31,12.31,0,0,1,2.37.28l.58.11c.92,0,1.79-2.17,1.79-3.86,0-.82-.18-1.8-1-1.8-1.7,0-4,2.24-6.31,6"/><path class="cls-1" d="M321.72,237.63a35.28,35.28,0,0,0,.51-4.7c0-.08,0-1.93-.65-1.93-1,0-3.14,2-5.49,4.43a3.23,3.23,0,0,1,1.37.92c1.2,1.41.89,3.36.53,5.61l0,.25-6.8,38.14h3l.2,0,6.74-39.17h0l.27-1.52.34-2Z"/></g></g></svg>