<svg xmlns="http://www.w3.org/2000/svg" viewBox="0 0 1432.2 976.18"><defs><style>.cls-1{fill:#ffffff;}</style></defs><title>Asset 1</title><g id="Layer_2" data-name="Layer 2"><g id="Layer_1-2" data-name="Layer 1"><path class="cls-1" d="M95.13,571.42c-2.2-2.66-2-6.39-.86-12.33L111,476.43l3.51-17.37a76,76,0,0,1-19,17.37h8.25L88.27,553.2a98.79,98.79,0,0,0-2,15.37c0,2.76.74,6.06,4.23,6.06a15.26,15.26,0,0,0,6.06-1.94,6.19,6.19,0,0,1-1.42-1.27"/><path class="cls-1" d="M190.05,404.83l-12.19,6.6a5.76,5.76,0,0,1,1.51,1.36,6.69,6.69,0,0,1,1.06,5.91L148.76,574.16c0,.17-.06.33-.08.47h7.08a5.73,5.73,0,0,0,.59-1.75L189.75,408l0-.09,0-.13.6-2.93,0-.18-.37.2"/><path class="cls-1" d="M212.52,574.63c1.89,0,5.39-1.69,9.85-5a5.94,5.94,0,0,1-3.23-2.08c-2.12-2.68-1.59-6.5-.7-10.23l14.94-57.69c1.19-4.76,2.48-11.63,2.48-15.39,0-5.37-1.71-10.78-5.53-10.78-2.25,0-5.15,1.12-8.57,3.24,3.19.84,6.17,3.67,6.17,9.63a70.4,70.4,0,0,1-2.25,15.59l-13.6,52.56a82.31,82.31,0,0,0-2,14.34c0,1,.12,5.8,2.4,5.8"/><path class="cls-1" d="M327.81,474.1c2.49,2.68,3.82,6.65,3.82,11.72a35.19,35.19,0,0,1-5.1,18.3c7.58-5.76,11.46-11.81,11.46-18,0-6.51-3.42-10.52-10.18-12"/><path class="cls-1" d="M283.8,496.44c-9.89,13.84-15.8,31.41-15.8,47,0,17.49,9.45,31.2,21.51,31.2a30.61,30.61,0,0,0,7.53-1.08,21.57,21.57,0,0,1-14.75-8.3c-6.23-8-7.8-21-4.41-35.89l1.57-7.1c3.71-15.89,8.29-28.08,13.82-36.66a69.94,69.94,0,0,0-9.47,10.84"/><path class="cls-1" d="M608.54,574.63a26,26,0,0,0,7.12-1.57c-9.4-2.86-18.09-14.53-18.09-36.44a93,93,0,0,1,9.72-40.42c-9.91,10.51-17.65,24.48-17.65,41.47,0,20.47,10.34,37,18.9,37"/><path class="cls-1" d="M646.51,473.47a25.78,25.78,0,0,0-7.83,1.7C650,478.71,658,493,658,511.22a94.65,94.65,0,0,1-9.73,40.84,63.42,63.42,0,0,0,17.66-44.51c0-25.69-14.44-34.08-19.41-34.08"/><path class="cls-1" d="M747.62,483.46c0-5.32-5.27-10-11.29-10a18.91,18.91,0,0,0-3.23.29c4.15,2,6.43,6.12,8.1,9.11,1.79,3.21,2.71,4.56,3.77,4.56,1.82,0,2.65-2.06,2.65-4"/><path class="cls-1" d="M708,574.06a46.53,46.53,0,0,1-10.7-5.74c-3.66-2.42-6.82-4.5-9.92-4.5-1.12,0-3.71.33-3.71,3.44,0,6.84,11.86,7.37,15.49,7.37a65.14,65.14,0,0,0,8.84-.57"/><path class="cls-1" d="M736.1,546.31c0-10.61-7.62-19.07-15-27.26-7.1-7.87-13.8-15.31-13.8-24.59,0-.44,0-.89.05-1.33a21.47,21.47,0,0,0-3.27,10.49c0,8,7.35,16.39,14.47,24.51,7.52,8.58,15.28,17.44,16.1,27.46a28.67,28.67,0,0,0,1.45-9.28"/><path class="cls-1" d="M533.65,574.63c2.08,0,5.77-2.28,10.2-6a5,5,0,0,1-1.72-1.29c-1.28-1.48-1.73-3.64-1.33-6.43l0-.24L555,489.93a61.21,61.21,0,0,0,1.22-9.47c0-2.65-.59-7-2.65-7-1.89,0-5.09,1.48-9.12,4.22a5.56,5.56,0,0,1,2.88,1.89c1.89,2.37,1.65,5.58.6,10.34l-15.44,75.6c-1.49,6.81-.24,8.6-.1,8.78a1.86,1.86,0,0,0,1.28.33"/><path class="cls-1" d="M441.6,473.51c-2,.38-6.92,3.4-13.65,9.69a5.24,5.24,0,0,1,1.84,1.45c1.6,2,1.95,5,1.08,9.37l-16.49,80.61h7.26l20-98.08a6.85,6.85,0,0,0,0-3"/><path class="cls-1" d="M495.67,473.47c-2.15,0-5.39,1.39-9.36,4a6.07,6.07,0,0,1,3.29,2.05c2.17,2.61,1.51,6.13,1,8.95L473,574.63h7.13c.07-.35.13-.67.17-.85l15.2-74.44c1.73-8.92,2.79-14.67,2.79-19,0-4.55-.89-6.85-2.66-6.85"/><path class="cls-1" d="M786.79,571.42c-2.2-2.66-2-6.39-.85-12.33l16.69-82.66,3.51-17.37a76,76,0,0,1-19,17.37h8.25L779.93,553.2a100,100,0,0,0-2,15.37c0,2.76.74,6.06,4.23,6.06a15.26,15.26,0,0,0,6.06-1.94,6.19,6.19,0,0,1-1.42-1.27"/><path class="cls-1" d="M975.72,677.34c3.6.5,6.42,2.16,9,3.64,2.76,1.62,5.13,3,8.44,3,2.07,0,2.13-3.32,2.13-3.7,0-4.53-6.25-5-8.94-5a28.65,28.65,0,0,0-10.59,2.07"/><path class="cls-1" d="M951,776.43a23,23,0,0,0,6.49-1c-10.38-1.32-16.93-10.4-16.93-23.89,0-9.42,3.9-35.6,12.26-54.21-12.21,17.33-19.67,41.07-19.67,56.57,0,13.71,7,22.56,17.85,22.56"/><path class="cls-1" d="M1156.91,608.43c.19-1,.3-1.73.36-2.3a26.41,26.41,0,0,0-5.27,2.57l-7.62,4.28a5.72,5.72,0,0,1,1.3,1.17c1.9,2.32,1.62,5.38,1,8.34l-28,138.28a49.73,49.73,0,0,0-1,8.29c0,3.36.73,7.37,4.22,7.37,1.53,0,3.75-.71,6.6-2.32a6.43,6.43,0,0,1-1.8-1.53c-2.39-2.91-1.93-7.09-1.27-10.41Z"/><path class="cls-1" d="M612.37,776.43a25.92,25.92,0,0,0,7.11-1.57c-9.39-2.86-18.08-14.53-18.08-36.44A92.89,92.89,0,0,1,611.13,698c-9.92,10.51-17.66,24.48-17.66,41.47,0,20.47,10.34,37,18.9,37"/><path class="cls-1" d="M650.34,675.27a25.78,25.78,0,0,0-7.83,1.7c11.32,3.54,19.31,17.86,19.31,36a94.65,94.65,0,0,1-9.73,40.84,63.42,63.42,0,0,0,17.66-44.51c0-25.69-14.44-34.08-19.41-34.08"/><path class="cls-1" d="M881,776.43c1.85,0,5.17-1.73,9.7-5.38a6,6,0,0,1-2.22-1.68c-2.29-2.76-1.78-6.55-.82-11.61L902.38,686c1.55-7.76.82-10.12.58-10.65a3.63,3.63,0,0,0-.45,0c-2,0-6.17,2.53-11.54,7.08a5.38,5.38,0,0,1,2.06,1.54c1.91,2.33,1.28,5.45,1,7l-14.67,71.77a64.6,64.6,0,0,0-1,9.07c0,4.75,1.93,4.75,2.66,4.75"/><path class="cls-1" d="M906.14,634.72c0,3.71,1.55,3.71,2.13,3.71,5.06,0,8.16-8.87,8.16-15.23,0-2-.74-4-2.4-4-3,0-7.89,7.09-7.89,15.49"/><path class="cls-1" d="M385.85,776.43a26,26,0,0,0,7.12-1.57c-9.39-2.86-18.08-14.53-18.08-36.44A93.1,93.1,0,0,1,384.61,698C374.7,708.51,367,722.48,367,739.47c0,20.47,10.33,37,18.89,37"/><path class="cls-1" d="M423.82,675.27A25.78,25.78,0,0,0,416,677c11.33,3.54,19.32,17.86,19.32,36a94.65,94.65,0,0,1-9.73,40.84,63.42,63.42,0,0,0,17.66-44.51c0-25.69-14.44-34.08-19.42-34.08"/><path class="cls-1" d="M334.41,677.34c3.6.5,6.42,2.16,9,3.64,2.76,1.62,5.14,3,8.44,3,2.07,0,2.13-3.32,2.13-3.7,0-4.53-6.25-5-8.94-5a28.73,28.73,0,0,0-10.59,2.07"/><path class="cls-1" d="M309.65,776.43a23,23,0,0,0,6.49-1c-10.38-1.32-16.93-10.4-16.93-23.89,0-9.42,3.91-35.6,12.26-54.22-12.21,17.33-19.67,41.07-19.67,56.58,0,13.71,7,22.56,17.85,22.56"/><path class="cls-1" d="M264.94,675.9c2.49,2.68,3.82,6.65,3.82,11.72a35.19,35.19,0,0,1-5.1,18.3c7.58-5.76,11.46-11.81,11.46-18,0-6.51-3.42-10.52-10.18-12"/><path class="cls-1" d="M220.93,698.24c-9.9,13.84-15.8,31.41-15.8,47,0,17.5,9.44,31.2,21.51,31.2a31,31,0,0,0,7.53-1.07,21.57,21.57,0,0,1-14.75-8.3c-6.23-8-7.8-21-4.41-35.9l1.57-7.1q5.55-23.82,13.82-36.65a69.85,69.85,0,0,0-9.47,10.83"/><path class="cls-1" d="M818.46,776.43c2.08,0,5.78-2.28,10.2-6a5.06,5.06,0,0,1-1.72-1.3c-1.28-1.48-1.73-3.64-1.33-6.43l0-.24,14.14-70.7a59.83,59.83,0,0,0,1.22-9.47c0-2.65-.59-7-2.65-7-1.89,0-5.09,1.48-9.12,4.22a5.52,5.52,0,0,1,2.88,1.89c1.89,2.37,1.65,5.58.6,10.34l-15.44,75.6c-1.49,6.81-.24,8.6-.09,8.79s.81.32,1.27.32"/><path class="cls-1" d="M726.41,675.31c-2,.38-6.92,3.4-13.65,9.7a5.33,5.33,0,0,1,1.84,1.44c1.6,1.95,1.95,5,1.08,9.37l-16.49,80.61h7.26l20-98.08a6.55,6.55,0,0,0,0-3"/><path class="cls-1" d="M780.49,675.27c-2.16,0-5.4,1.39-9.37,4a6.06,6.06,0,0,1,3.3,2c2.17,2.61,1.51,6.13,1,9l-17.54,86.17H765c.07-.35.13-.67.17-.85l15.2-74.44c1.73-8.92,2.79-14.67,2.79-19,0-4.54-.89-6.85-2.65-6.85"/><path class="cls-1" d="M1017.73,776.43c1.67,0,4.67-1.7,8.35-4.41-6.87-1.27-11.71-10.71-11.71-23.39,0-12.13,3.75-26.29,9.48-37.74-10.56,13.54-16.63,28.94-16.63,43,0,12.24,6.46,22.56,10.51,22.56"/><path class="cls-1" d="M1072.86,767.83c-2.1-2.55-2.32-6.42-.8-14.27l15.7-78.26a75.37,75.37,0,0,0-25.87,6.08,86.36,86.36,0,0,1,12.13-1.57l5.73-.36-13.22,66.06c-5.46,21.87-3.78,28.33-2.29,30.24a1.78,1.78,0,0,0,1.68.68c1.42,0,5-2.14,10.07-6.58a6.12,6.12,0,0,1-3.13-2"/><path class="cls-1" d="M537.47,776.43c1.83,0,4.51-1.19,7.61-3.19a6.11,6.11,0,0,1-1.55-1.41c-2.21-2.82-1.62-6.79-.65-10.65l16.25-61.08a52.3,52.3,0,0,0,2-13.79c.13-4.33-.84-7.92-2.59-9.73a4.22,4.22,0,0,0-3.21-1.31c-1.93,0-4.77,1.09-8.51,3.51a8.5,8.5,0,0,1,4.57,3c2.43,3.12,2.91,7.73,1.41,13.71l-17.29,67.33c-1.78,6.84-1,11.07.26,12.74a2,2,0,0,0,1.75.86"/><path class="cls-1" d="M500.06,675.3c-2.26.44-7.54,4.57-13.55,10.72a5.53,5.53,0,0,1,2.06,1.57c1.63,2,2,4.93,1.12,9.27l-16.44,79.57h7.3a5.61,5.61,0,0,0,.2-.83l8.91-44.29,10.49-52.16c.44-2.32.12-3.48-.09-3.85"/><path class="cls-1" d="M855.55,976.18a65.09,65.09,0,0,0,8.83-.57,46.08,46.08,0,0,1-10.69-5.74c-3.66-2.41-6.83-4.5-9.93-4.5-1.11,0-3.7.34-3.7,3.44,0,6.84,11.85,7.37,15.49,7.37"/><path class="cls-1" d="M904,885c0-5.32-5.28-10-11.3-10a18.8,18.8,0,0,0-3.22.29c4.15,2,6.43,6.13,8.09,9.11,1.79,3.22,2.71,4.56,3.77,4.56,1.83,0,2.66-2.06,2.66-4"/><path class="cls-1" d="M892.51,947.86c0-10.61-7.63-19.07-15-27.25-7.1-7.88-13.81-15.32-13.81-24.6,0-.44,0-.88.06-1.33a21.54,21.54,0,0,0-3.27,10.5c0,8,7.35,16.38,14.46,24.5,7.53,8.58,15.29,17.44,16.1,27.46a28.66,28.66,0,0,0,1.46-9.28"/><path class="cls-1" d="M288.87,976.18c1.62,0,4.44-1.37,8.12-4-5.78-1.43-11.22-8.34-11.22-24.3,0-17.92,6.8-39.9,16.4-55.24-12.53,13.6-23.81,33.92-23.81,56.81,0,16.53,5.46,26.75,10.51,26.75"/><path class="cls-1" d="M761,968.81c0,6.84,11.85,7.37,15.49,7.37a65.09,65.09,0,0,0,8.83-.57,46.08,46.08,0,0,1-10.69-5.74c-3.66-2.41-6.83-4.5-9.93-4.5-1.11,0-3.7.34-3.7,3.44"/><path class="cls-1" d="M813.43,947.86c0-10.61-7.63-19.07-15-27.25-7.1-7.88-13.81-15.32-13.81-24.6,0-.44,0-.88.06-1.33a21.54,21.54,0,0,0-3.27,10.5c0,8,7.35,16.38,14.46,24.5,7.52,8.58,15.29,17.44,16.1,27.46a28.66,28.66,0,0,0,1.46-9.28"/><path class="cls-1" d="M822.29,889c1.83,0,2.66-2.06,2.66-4,0-5.32-5.28-10-11.3-10a18.8,18.8,0,0,0-3.22.29c4.15,2,6.43,6.13,8.09,9.11,1.79,3.22,2.71,4.56,3.77,4.56"/><path class="cls-1" d="M8.87,973c-2.2-2.66-2-6.38-.86-12.32L24.71,878l3.51-17.37A76,76,0,0,1,9.23,878h8.25L2,954.76a98.68,98.68,0,0,0-2,15.36c0,2.77.73,6.06,4.23,6.06a15.26,15.26,0,0,0,6.06-1.94A6,6,0,0,1,8.87,973"/><path class="cls-1" d="M121.61,875.65c2.49,2.68,3.83,6.65,3.83,11.72a35.17,35.17,0,0,1-5.11,18.31c7.58-5.76,11.46-11.82,11.46-18,0-6.5-3.41-10.52-10.18-12"/><path class="cls-1" d="M77.61,898c-9.9,13.84-15.81,31.41-15.81,47,0,17.5,9.45,31.2,21.51,31.2a31.18,31.18,0,0,0,7.54-1.07,21.55,21.55,0,0,1-14.75-8.3c-6.24-8-7.81-21-4.41-35.9l1.56-7.09c3.71-15.89,8.29-28.08,13.82-36.66A70.27,70.27,0,0,0,77.61,898"/><path class="cls-1" d="M449.2,875.65c2.5,2.68,3.83,6.65,3.83,11.72a35.17,35.17,0,0,1-5.11,18.31c7.58-5.76,11.47-11.82,11.47-18,0-6.5-3.42-10.52-10.19-12"/><path class="cls-1" d="M405.2,898c-9.9,13.84-15.81,31.41-15.81,47,0,17.5,9.45,31.2,21.51,31.2a31.12,31.12,0,0,0,7.54-1.07,21.57,21.57,0,0,1-14.75-8.3c-6.23-8-7.81-21-4.41-35.9l1.56-7.09c3.71-15.89,8.29-28.08,13.82-36.66A70.27,70.27,0,0,0,405.2,898"/><path class="cls-1" d="M739.62,875.65c2.49,2.68,3.82,6.65,3.82,11.72a35.16,35.16,0,0,1-5.1,18.31c7.58-5.76,11.46-11.82,11.46-18,0-6.5-3.42-10.52-10.18-12"/><path class="cls-1" d="M695.61,898c-9.89,13.84-15.8,31.41-15.8,47,0,17.5,9.45,31.2,21.51,31.2a31,31,0,0,0,7.53-1.07,21.57,21.57,0,0,1-14.75-8.3c-6.23-8-7.8-21-4.41-35.9l1.57-7.09c3.71-15.89,8.29-28.08,13.82-36.66A70.32,70.32,0,0,0,695.61,898"/><path class="cls-1" d="M219.48,976.18c1.83,0,4.51-1.19,7.61-3.19a5.93,5.93,0,0,1-1.55-1.41c-2.2-2.82-1.62-6.79-.65-10.65l16.25-61.08a51.88,51.88,0,0,0,2-13.79c.13-4.33-.84-7.92-2.59-9.73a4.2,4.2,0,0,0-3.21-1.31c-1.93,0-4.77,1.09-8.51,3.51a8.51,8.51,0,0,1,4.57,3c2.43,3.11,2.91,7.72,1.41,13.7l-17.29,67.33c-1.78,6.84-1,11.07.26,12.74a2,2,0,0,0,1.75.86"/><path class="cls-1" d="M182.07,875.06c-2.26.43-7.54,4.57-13.55,10.71a5.53,5.53,0,0,1,2.06,1.57c1.63,2,2,4.93,1.12,9.27l-16.44,79.57h7.3a5.14,5.14,0,0,0,.21-.82l8.9-44.29,10.49-52.16c.45-2.33.12-3.49-.09-3.85"/><path class="cls-1" d="M624.59,976.18c1.83,0,4.51-1.19,7.6-3.19a6,6,0,0,1-1.54-1.41c-2.21-2.82-1.62-6.79-.66-10.65l16.26-61.08a52.24,52.24,0,0,0,1.94-13.79c.14-4.33-.83-7.92-2.58-9.73a4.22,4.22,0,0,0-3.22-1.31c-1.92,0-4.76,1.09-8.5,3.51a8.53,8.53,0,0,1,4.56,3c2.44,3.11,2.91,7.72,1.42,13.7l-17.29,67.33c-1.79,6.84-1,11.07.26,12.74a2,2,0,0,0,1.75.86"/><path class="cls-1" d="M587.18,875.06c-2.26.43-7.55,4.57-13.55,10.71a5.7,5.7,0,0,1,2.06,1.57c1.63,2,2,4.93,1.11,9.27l-16.43,79.57h7.29a5.14,5.14,0,0,0,.21-.82l8.9-44.29,10.49-52.16c.45-2.33.12-3.49-.08-3.85"/><path class="cls-1" d="M527.85,887.35a10.35,10.35,0,0,1,5.35-1.51,23.76,23.76,0,0,1,4.87.58c.42.08,1,.19,1.18.2,1.87,0,3.67-4.44,3.67-7.89,0-1.69-.37-3.7-2.13-3.7-3.48,0-8.13,4.6-12.94,12.32"/><path class="cls-1" d="M505.73,888.61a73.55,73.55,0,0,0,1-9.62c0-.16,0-4-1.34-4-2,.06-6.43,4-11.25,9.09A6.21,6.21,0,0,1,497,886c2.47,2.88,1.84,6.87,1.1,11.5l-.08.5-13.93,78.17h6.17a2.12,2.12,0,0,0,.42,0l13.82-80.28h0l.53-3.12.71-4.13Z"/><path class="cls-1" d="M372.3,807c0-.11,0-.24.07-.37a42.62,42.62,0,0,0-4.65,2.12L360,813a6.43,6.43,0,0,1,.83.82c1.47,1.76,1.89,4.23,1.29,7.54L333,965.25c-1.61,8.29-.21,10.64,0,10.93h.14c2.21,0,6.51-2.49,11.47-6.75a6,6,0,0,1-1.76-1.42c-1.72-2.06-2.09-5.13-1.22-9.94Z"/><path class="cls-1" d="M659.66,166.8c-2.2-2.67-2-6.39-.85-12.33l16.7-82.67L679,54.44A76.11,76.11,0,0,1,660,71.8h8.24l-15.46,76.78a98.68,98.68,0,0,0-2,15.36c0,2.77.73,6.06,4.23,6.06a15.22,15.22,0,0,0,6.05-1.93,6.67,6.67,0,0,1-1.42-1.27"/><path class="cls-1" d="M754.58.2,742.39,6.8a6,6,0,0,1,1.52,1.37,6.66,6.66,0,0,1,1.05,5.9L713.29,169.54c0,.16,0,.32-.07.46h7.08a6.05,6.05,0,0,0,.59-1.74L754.28,3.34l0-.1,0-.12.59-2.94c0-.06,0-.12,0-.18l-.38.2"/><path class="cls-1" d="M777.05,170c1.89,0,5.4-1.69,9.85-5a5.9,5.9,0,0,1-3.23-2.07c-2.11-2.69-1.58-6.51-.7-10.23L797.92,95c1.19-4.75,2.48-11.62,2.48-15.39,0-5.36-1.71-10.77-5.54-10.77-2.25,0-5.15,1.12-8.57,3.23,3.19.84,6.18,3.67,6.18,9.64a70.4,70.4,0,0,1-2.26,15.58l-13.6,52.56a82.46,82.46,0,0,0-2,14.34c0,1,.12,5.8,2.39,5.8"/><path class="cls-1" d="M892.34,69.47c2.49,2.68,3.83,6.65,3.83,11.72a35.17,35.17,0,0,1-5.11,18.31c7.58-5.76,11.47-11.82,11.47-18,0-6.5-3.42-10.51-10.19-12"/><path class="cls-1" d="M848.34,91.81c-9.9,13.85-15.81,31.41-15.81,47,0,17.5,9.45,31.2,21.51,31.2a31.12,31.12,0,0,0,7.54-1.07,21.57,21.57,0,0,1-14.75-8.3c-6.23-8-7.81-21-4.41-35.9l1.56-7.09c3.71-15.89,8.29-28.08,13.82-36.66a70.27,70.27,0,0,0-9.46,10.83"/><path class="cls-1" d="M401.6,166.8c-2.2-2.67-2-6.39-.85-12.33L417.44,71.8,421,54.44A76.11,76.11,0,0,1,402,71.8h8.24l-15.46,76.78a98.68,98.68,0,0,0-2,15.36c0,2.77.73,6.06,4.22,6.06a15.21,15.21,0,0,0,6.06-1.93,6.67,6.67,0,0,1-1.42-1.27"/><path class="cls-1" d="M496.52.2,484.33,6.8a6,6,0,0,1,1.52,1.37,6.66,6.66,0,0,1,1,5.9L455.23,169.54c0,.16-.05.32-.07.46h7.08a6.05,6.05,0,0,0,.59-1.74L496.22,3.34l0-.1,0-.12.59-2.94c0-.06,0-.12,0-.18l-.38.2"/><path class="cls-1" d="M519,170c1.89,0,5.4-1.69,9.85-5a5.9,5.9,0,0,1-3.23-2.07c-2.11-2.69-1.58-6.51-.7-10.23l15-57.7c1.19-4.75,2.48-11.62,2.48-15.39,0-5.36-1.71-10.77-5.54-10.77-2.25,0-5.15,1.12-8.57,3.23,3.19.84,6.18,3.67,6.18,9.64a70.4,70.4,0,0,1-2.26,15.58l-13.6,52.56a82.46,82.46,0,0,0-1.95,14.34c0,1,.12,5.8,2.39,5.8"/><path class="cls-1" d="M358.21,32c5.05,0,8.16-8.87,8.16-15.23,0-2-.74-4-2.4-4-3,0-7.89,7.09-7.89,15.48,0,3.71,1.55,3.71,2.13,3.71"/><path class="cls-1" d="M352.31,79.52c1.55-7.75.83-10.12.58-10.65l-.44,0c-2,0-6.17,2.53-11.54,7.08a5.3,5.3,0,0,1,2,1.53c1.91,2.33,1.29,5.45,1,7l-14.67,71.77a64.29,64.29,0,0,0-1,9.07c0,4.75,1.93,4.75,2.65,4.75,1.86,0,5.18-1.73,9.7-5.37a6.12,6.12,0,0,1-2.22-1.69c-2.28-2.76-1.78-6.55-.81-11.61Z"/><path class="cls-1" d="M252.25,73.18a18.52,18.52,0,0,0,.25-4.33h-5.06a1.57,1.57,0,0,0-.49.05s-.55.51-.91,2.77L234,148.4a133.86,133.86,0,0,0-1.51,16.07c0,3.43,1.39,5.53,2.39,5.53,1.72,0,4.33-.74,8.26-3.09a6.51,6.51,0,0,1-1.64-1.37c-2.61-3-2.39-8.09-1-16.93Z"/><path class="cls-1" d="M303,68.85c-3.06,0-7.11,3.75-7.11,6.58a.59.59,0,0,0,0,.19A7.51,7.51,0,0,0,297,76.75c1.82,1.6,4.86,4.27,4.86,9.94,0,10.3-3.79,21-8.65,30.57,10.75-14.83,16.32-27.94,16.32-38.69,0-5.45-2.89-9.72-6.58-9.72"/><path class="cls-1" d="M184.83,167.05a6.6,6.6,0,0,1-3.36-2.07c-2.82-3.24-2.12-8.14-.72-17.9l9.17-61.3a112.93,112.93,0,0,0,1.26-13.49,6.93,6.93,0,0,0-.62-3.43c-2.1.18-7.16,3.9-13.14,9.85a6.21,6.21,0,0,1,3.67,2.07c2.49,2.92,1.81,7.08.88,12.84-.2,1.24-.41,2.54-.6,3.89l-6.81,46.65A189.63,189.63,0,0,0,173,163.42c0,2.46.45,6.58,3.45,6.58,2.1,0,4.9-.92,8.35-2.95"/><path class="cls-1" d="M555.44,426c-5.14-4.21-7.6-9.41-7.6-14.45a17.33,17.33,0,0,1,3-9.27c-5.7,4.12-9.86,8.26-9.86,11.63,0,3.9,4.63,8.72,14.49,12.09"/><path class="cls-1" d="M872,365c0,6.83,11.85,7.37,15.49,7.37a66.75,66.75,0,0,0,8.83-.57A46.84,46.84,0,0,1,885.61,366c-3.66-2.42-6.83-4.51-9.93-4.51-1.11,0-3.7.34-3.7,3.45"/><path class="cls-1" d="M637.4,410.51c0-6.61-14.7-16.06-25.43-23-12.57-8.08-22.65-14.56-23.71-22.08-2.17,2-3.31,4-3.31,5.76a6.59,6.59,0,0,0,2,4.66l3.73,4.19-.13.07A218.62,218.62,0,0,0,615,398.45c10.13,6.79,16.83,11.28,16.83,18.35a9.9,9.9,0,0,1-.4,2.79c3.9-2.86,6-6,6-9.08"/><path class="cls-1" d="M936,281.15c0-5.32-5.28-10-11.3-10a18.8,18.8,0,0,0-3.22.29c4.15,2,6.43,6.12,8.09,9.11,1.79,3.21,2.71,4.55,3.77,4.55,1.83,0,2.66-2.05,2.66-4"/><path class="cls-1" d="M924.43,344c0-10.62-7.63-19.08-15-27.26-7.1-7.87-13.81-15.31-13.81-24.59,0-.45,0-.89.06-1.33a21.49,21.49,0,0,0-3.28,10.49c0,8,7.36,16.39,14.47,24.5,7.52,8.59,15.29,17.45,16.1,27.46a28.65,28.65,0,0,0,1.46-9.27"/><path class="cls-1" d="M745.17,367.33a6,6,0,0,1-3.23-2.08c-2.11-2.68-1.58-6.5-.7-10.23l15-57.7c1.19-4.75,2.48-11.62,2.48-15.39,0-5.36-1.71-10.77-5.54-10.77-2.25,0-5.15,1.12-8.57,3.23,3.19.85,6.18,3.67,6.18,9.64a70.32,70.32,0,0,1-2.26,15.58l-13.6,52.56a82.44,82.44,0,0,0-2,14.35c0,1,.12,5.8,2.39,5.8,1.89,0,5.4-1.7,9.85-5"/><path class="cls-1" d="M654.94,272.81c-8.49-.87-17.83-1.65-26.22-1.65-1.18,0-2.36,0-3.52.16,7.33,4.22,11.86,14.29,11.86,27.64,0,14.29-4.08,28.2-10.28,38.41a82.14,82.14,0,0,0,6.93-6.18c8-8.05,11.8-17.46,11.8-29.62,0-5.95-1.85-13.39-5.09-20.4l-3.26-7.06L654.94,276Z"/><path class="cls-1" d="M594.72,352.84,597,353.9c.74-.38,1.51-.75,2.31-1.12-9.17-3.08-15.58-14-15.58-27.9,0-5.81,3-24.21,10.56-38.3-11.25,10.78-18.49,25.11-18.49,35.94a33.08,33.08,0,0,0,18.94,30.32"/><path class="cls-1" d="M461.38,372.32c2-.09,6.25-3.28,11-7.37-2.49-.62-5.69-2.8-5.69-9.95a34,34,0,0,1,.89-7.25l12.81-63.29c2-9.95,1.37-12.6,1-13.28l-.35,0c-2.19,0-7.23,3.42-13.21,9.41a5.36,5.36,0,0,1,2.9,1.81c1.91,2.31,1.7,5.46.51,11.65L460.47,347c-1.33,6.91-2,11.2-2,15.36,0,6.49,1.51,10,2.92,10"/><path class="cls-1" d="M405.87,271.16a25.48,25.48,0,0,0-7.83,1.7c11.32,3.53,19.31,17.86,19.31,36.05a94.74,94.74,0,0,1-9.72,40.83,63.43,63.43,0,0,0,17.65-44.5c0-25.69-14.44-34.08-19.41-34.08"/><path class="cls-1" d="M367.9,372.32a26.43,26.43,0,0,0,7.12-1.57c-9.4-2.86-18.09-14.53-18.09-36.44a93.08,93.08,0,0,1,9.73-40.43C356.74,304.4,349,318.37,349,335.36c0,20.47,10.34,37,18.9,37"/><path class="cls-1" d="M295.28,369.11c-2.2-2.66-2-6.39-.85-12.33l16.7-82.66,3.5-17.37a76,76,0,0,1-19,17.37h8.24l-15.46,76.77a98.79,98.79,0,0,0-2,15.37c0,2.76.73,6.06,4.23,6.06a15.36,15.36,0,0,0,6.06-1.94,6.5,6.5,0,0,1-1.43-1.27"/><path class="cls-1" d="M544.8,271.55c0-.14.06-.27.08-.39h-5.46a4.36,4.36,0,0,0-1.81.23,4,4,0,0,0-.42,1.26l-16,77.7C519.35,360.49,519,365,519,367c0,3.32.42,4.72.64,5.23,2-.48,6.58-3.81,12.35-9.17a5.88,5.88,0,0,1-3.2-2.08,7,7,0,0,1-1-6.21Z"/><path class="cls-1" d="M712.85,202.52l-12.19,6.6a6,6,0,0,1,1.52,1.36,6.67,6.67,0,0,1,1.05,5.9L671.56,371.85c0,.17,0,.32-.08.47h7.09a5.8,5.8,0,0,0,.59-1.74l33.39-164.92,0-.1,0-.12.59-2.93a1.06,1.06,0,0,1,0-.19l-.38.21"/><path class="cls-1" d="M735.32,372.32c1.89,0,5.4-1.7,9.85-5a6,6,0,0,1-3.23-2.08c-2.11-2.68-1.59-6.5-.7-10.23l15-57.7c1.19-4.75,2.48-11.62,2.48-15.39,0-5.36-1.71-10.77-5.54-10.77-2.25,0-5.15,1.12-8.57,3.24,3.19.84,6.18,3.66,6.18,9.63a70.32,70.32,0,0,1-2.26,15.58l-13.6,52.56a82.44,82.44,0,0,0-2,14.35c0,1,.12,5.8,2.39,5.8"/><path class="cls-1" d="M850.61,271.79c2.49,2.67,3.83,6.64,3.83,11.72a35.14,35.14,0,0,1-5.11,18.3c7.58-5.76,11.46-11.82,11.46-18,0-6.51-3.41-10.52-10.18-12"/><path class="cls-1" d="M806.61,294.13c-9.9,13.84-15.81,31.4-15.81,47,0,17.49,9.45,31.2,21.51,31.2a30.75,30.75,0,0,0,7.54-1.08,21.57,21.57,0,0,1-14.75-8.3c-6.23-8.05-7.81-21-4.41-35.89l1.56-7.1c3.71-15.89,8.29-28.08,13.82-36.66a69.9,69.9,0,0,0-9.46,10.84"/><path class="cls-1" d="M975.11,369.11c-2.2-2.66-2-6.39-.85-12.33L991,274.12l3.5-17.37a76,76,0,0,1-19,17.37h8.24l-15.46,76.77a98.79,98.79,0,0,0-2,15.37c0,2.76.73,6.06,4.23,6.06a15.27,15.27,0,0,0,6-1.94,6.67,6.67,0,0,1-1.42-1.27"/><path class="cls-1" d="M1432.2,368.35c0-7.82-3.9-14.18-8.68-14.18-3.82,0-6.59,3.21-6.59,7.63,0,3.68,1.47,6.1,3.34,9.17,2.13,3.5,4.78,7.86,4.78,14.4a22.59,22.59,0,0,1-1.54,8.28,40.23,40.23,0,0,0,8.69-25.3"/><path class="cls-1" d="M1100.66,372.32a23.26,23.26,0,0,0,6.49-1c-10.37-1.32-16.92-10.4-16.92-23.89,0-9.42,3.9-35.6,12.26-54.22-12.21,17.33-19.67,41.07-19.67,56.58,0,13.7,7,22.56,17.84,22.56"/><path class="cls-1" d="M1142.83,279.88c2.07,0,2.13-3.33,2.13-3.71,0-4.52-6.25-5-8.94-5a28.88,28.88,0,0,0-10.59,2.06,24.06,24.06,0,0,1,9,3.65c2.75,1.61,5.14,3,8.44,3"/><path class="cls-1" d="M1394.28,271.79c2.5,2.67,3.83,6.64,3.83,11.72a35.14,35.14,0,0,1-5.11,18.3c7.58-5.76,11.47-11.82,11.47-18,0-6.51-3.42-10.52-10.19-12"/><path class="cls-1" d="M1350.28,294.13c-9.9,13.84-15.81,31.4-15.81,47,0,17.49,9.45,31.2,21.51,31.2a30.68,30.68,0,0,0,7.54-1.08,21.57,21.57,0,0,1-14.75-8.3c-6.23-8.05-7.81-21-4.41-35.89l1.56-7.1c3.71-15.89,8.3-28.08,13.82-36.66a69.9,69.9,0,0,0-9.46,10.84"/><path class="cls-1" d="M1167.44,372.32c1.67,0,4.67-1.7,8.35-4.41-6.88-1.27-11.71-10.72-11.71-23.39,0-12.13,3.75-26.29,9.48-37.75-10.57,13.55-16.63,29-16.63,43,0,12.23,6.46,22.56,10.51,22.56"/><path class="cls-1" d="M1222.57,363.72c-2.1-2.55-2.32-6.42-.8-14.28l15.7-78.25a75.46,75.46,0,0,0-25.88,6.07,88.26,88.26,0,0,1,12.14-1.56l5.73-.36-13.22,66.06c-5.47,21.87-3.79,28.33-2.3,30.24a1.82,1.82,0,0,0,1.69.68c1.42,0,5-2.14,10.07-6.58a6.12,6.12,0,0,1-3.13-2"/><path class="cls-1" d="M1311.89,283.48a10.39,10.39,0,0,1,5.34-1.51,24.38,24.38,0,0,1,4.87.58c.42.08,1,.2,1.19.21,1.87,0,3.66-4.45,3.66-7.9,0-1.69-.37-3.7-2.13-3.7-3.48,0-8.13,4.6-12.93,12.32"/><path class="cls-1" d="M1289.77,284.75a73.72,73.72,0,0,0,1-9.62c0-.17,0-4-1.35-4-2,.06-6.42,4-11.25,9.09a6.38,6.38,0,0,1,2.81,1.89c2.46,2.89,1.83,6.88,1.1,11.5l-.08.5-13.93,78.18h6.16a2,2,0,0,0,.42,0L1288.52,292h0l.54-3.13.71-4.12Z"/></g></g></svg>